<svg 
 xmlns="http://www.w3.org/2000/svg"
 xmlns:xlink="http://www.w3.org/1999/xlink"
 width="1095px" height="161px">
<path fill-rule="evenodd"  fill="rgb(255, 255, 255)"
 d="M1062.526,158.000 L1062.526,97.792 C1062.526,93.765 1061.588,90.188 1059.713,87.062 C1057.838,83.938 1055.338,81.437 1052.213,79.562 C1049.088,77.688 1045.651,76.750 1041.901,76.750 C1038.151,76.750 1034.677,77.655 1031.484,79.458 C1028.288,81.265 1025.755,83.697 1023.880,86.750 C1022.005,89.807 1021.067,93.280 1021.067,97.167 L1021.067,158.000 L988.776,158.000 L988.776,5.917 L1021.067,5.917 L1021.067,58.208 C1025.234,54.875 1029.817,52.447 1034.817,50.917 C1039.817,49.390 1044.817,48.625 1049.817,48.625 C1059.538,48.625 1067.767,50.708 1074.505,54.875 C1081.240,59.042 1086.308,64.738 1089.713,71.958 C1093.115,79.182 1094.817,87.375 1094.817,96.542 L1094.817,158.000 L1062.526,158.000 ZM935.652,151.021 C927.039,146.369 920.236,140.051 915.236,132.063 C910.236,124.077 907.736,114.947 907.736,104.667 C907.736,94.390 910.236,85.259 915.236,77.271 C920.236,69.286 927.039,62.932 935.652,58.208 C944.262,53.488 954.122,51.125 965.236,51.125 L981.277,51.125 L981.277,78.417 L966.486,78.417 C961.069,78.417 956.414,79.562 952.527,81.854 C948.637,84.146 945.616,87.271 943.465,91.229 C941.310,95.188 940.236,99.667 940.236,104.667 C940.236,109.667 941.310,114.146 943.465,118.104 C945.616,122.063 948.637,125.188 952.527,127.479 C956.414,129.771 961.069,130.917 966.486,130.917 L981.277,130.917 L981.277,158.000 L965.236,158.000 C954.122,158.000 944.262,155.676 935.652,151.021 ZM903.362,114.875 L833.362,114.875 C834.196,118.488 835.791,121.542 838.154,124.042 C840.514,126.542 843.499,128.384 847.112,129.563 C850.722,130.744 854.749,131.333 859.196,131.333 L891.904,131.333 L891.904,158.000 L860.237,158.000 C848.154,158.000 837.529,155.744 828.362,151.229 C819.196,146.717 812.076,140.467 807.008,132.479 C801.936,124.494 799.404,115.223 799.404,104.667 C799.404,93.000 801.832,83.000 806.696,74.667 C811.556,66.333 818.050,59.911 826.175,55.396 C834.300,50.884 843.291,48.625 853.154,48.625 C864.404,48.625 873.811,50.988 881.383,55.708 C888.951,60.432 894.681,66.854 898.571,74.979 C902.457,83.104 904.404,92.375 904.404,102.792 C904.404,104.598 904.300,106.717 904.091,109.146 C903.883,111.577 903.639,113.488 903.362,114.875 ZM871.904,88.208 C871.347,86.125 870.478,84.286 869.300,82.688 C868.118,81.092 866.764,79.702 865.237,78.521 C863.707,77.342 861.936,76.405 859.925,75.708 C857.910,75.015 855.654,74.667 853.154,74.667 C849.957,74.667 847.112,75.223 844.612,76.333 C842.112,77.447 840.029,78.937 838.362,80.812 C836.696,82.688 835.410,84.842 834.508,87.271 C833.603,89.702 832.946,92.167 832.529,94.667 L873.154,94.667 C872.874,92.447 872.457,90.292 871.904,88.208 ZM745.238,149.563 C739.682,143.938 736.905,136.333 736.905,126.750 L736.905,77.583 L719.405,77.583 L719.405,51.125 L736.905,51.125 L736.905,25.083 L769.405,25.083 L769.405,51.125 L798.780,51.125 L798.780,77.583 L769.405,77.583 L769.405,124.875 C769.405,126.542 769.994,127.967 771.176,129.146 C772.354,130.327 773.780,130.917 775.446,130.917 L798.780,130.917 L798.780,158.000 L768.363,158.000 C758.500,158.000 750.792,155.187 745.238,149.563 ZM683.990,140.917 L683.157,140.917 C681.210,144.667 678.710,148.036 675.657,151.021 C672.600,154.009 668.886,156.333 664.511,158.000 C660.136,159.667 654.960,160.500 648.990,160.500 C639.543,160.500 631.210,158.068 623.990,153.208 C616.767,148.348 611.142,141.786 607.115,133.521 C603.085,125.259 601.073,115.917 601.073,105.500 C601.073,94.667 603.433,84.979 608.157,76.438 C612.877,67.896 619.579,61.125 628.261,56.125 C636.939,51.125 647.183,48.625 658.990,48.625 C670.933,48.625 681.106,51.092 689.511,56.021 C697.913,60.952 704.371,67.687 708.886,76.229 C713.398,84.771 715.657,94.322 715.657,104.875 L715.657,158.000 L683.990,158.000 L683.990,140.917 ZM679.823,90.500 C677.877,86.333 675.064,83.036 671.386,80.604 C667.704,78.176 663.433,76.958 658.573,76.958 C653.573,76.958 649.198,78.176 645.448,80.604 C641.698,83.036 638.850,86.333 636.907,90.500 C634.960,94.667 633.990,99.322 633.990,104.458 C633.990,109.738 634.960,114.530 636.907,118.833 C638.850,123.140 641.698,126.509 645.448,128.938 C649.198,131.369 653.573,132.583 658.573,132.583 C663.433,132.583 667.704,131.369 671.386,128.938 C675.064,126.509 677.877,123.140 679.823,118.833 C681.767,114.530 682.740,109.738 682.740,104.458 C682.740,99.322 681.767,94.667 679.823,90.500 ZM565.342,155.500 C560.134,158.833 554.264,160.500 547.738,160.500 C541.348,160.500 535.514,158.833 530.238,155.500 C524.958,152.167 521.348,147.655 519.404,141.958 L488.988,51.125 L524.404,51.125 L545.863,127.375 C546.139,127.932 546.452,128.348 546.800,128.625 C547.145,128.905 547.529,129.042 547.946,129.042 C548.499,129.042 548.952,128.905 549.300,128.625 C549.645,128.348 549.889,127.932 550.029,127.375 L571.904,51.125 L606.488,51.125 L576.071,141.958 C574.124,147.655 570.550,152.167 565.342,155.500 ZM469.407,39.042 C464.267,39.042 459.823,37.167 456.073,33.417 C452.323,29.667 450.448,25.223 450.448,20.083 C450.448,14.947 452.323,10.467 456.073,6.646 C459.823,2.827 464.267,0.917 469.407,0.917 C474.543,0.917 478.990,2.827 482.740,6.646 C486.490,10.467 488.365,14.947 488.365,20.083 C488.365,25.223 486.490,29.667 482.740,33.417 C478.990,37.167 474.543,39.042 469.407,39.042 ZM390.243,149.563 C384.686,143.938 381.910,136.333 381.910,126.750 L381.910,77.583 L366.703,77.583 L366.703,78.417 L351.911,78.417 C346.494,78.417 341.840,79.562 337.953,81.854 C334.063,84.146 331.042,87.271 328.890,91.229 C326.735,95.188 325.661,99.667 325.661,104.667 C325.661,109.667 326.735,114.146 328.890,118.104 C331.042,122.063 334.063,125.188 337.953,127.479 C341.840,129.771 346.494,130.917 351.911,130.917 L366.703,130.917 L366.703,158.000 L350.661,158.000 C339.548,158.000 329.688,155.676 321.078,151.021 C312.465,146.369 305.661,140.051 300.661,132.063 C295.661,124.077 293.161,114.947 293.161,104.667 C293.161,94.390 295.661,85.259 300.661,77.271 C305.661,69.286 312.465,62.932 321.078,58.208 C329.688,53.488 339.548,51.125 350.661,51.125 L364.410,51.125 L366.703,51.125 L381.910,51.125 L381.910,25.083 L414.410,25.083 L414.410,51.125 L443.785,51.125 L443.785,77.583 L414.410,77.583 L414.410,124.875 C414.410,126.542 414.999,127.967 416.181,129.146 C417.359,130.327 418.785,130.917 420.451,130.917 L443.785,130.917 L443.785,158.000 L413.368,158.000 C403.505,158.000 395.796,155.187 390.243,149.563 ZM252.955,140.917 L252.121,140.917 C250.175,144.667 247.675,148.036 244.621,151.021 C241.565,154.009 237.850,156.333 233.475,158.000 C229.100,159.667 223.925,160.500 217.955,160.500 C208.508,160.500 200.175,158.068 192.955,153.208 C185.731,148.348 180.106,141.786 176.080,133.521 C172.050,125.259 170.038,115.917 170.038,105.500 C170.038,94.667 172.398,84.979 177.121,76.438 C181.841,67.896 188.544,61.125 197.225,56.125 C205.904,51.125 216.148,48.625 227.955,48.625 C239.898,48.625 250.070,51.092 258.475,56.021 C266.877,60.952 273.336,67.687 277.850,76.229 C282.362,84.771 284.621,94.322 284.621,104.875 L284.621,158.000 L252.955,158.000 L252.955,140.917 ZM248.788,90.500 C246.841,86.333 244.029,83.036 240.350,80.604 C236.669,78.176 232.398,76.958 227.538,76.958 C222.538,76.958 218.163,78.176 214.413,80.604 C210.663,83.036 207.815,86.333 205.871,90.500 C203.925,94.667 202.955,99.322 202.955,104.458 C202.955,109.738 203.925,114.530 205.871,118.833 C207.815,123.140 210.663,126.509 214.413,128.938 C218.163,131.369 222.538,132.583 227.538,132.583 C232.398,132.583 236.669,131.369 240.350,128.938 C244.029,126.509 246.841,123.140 248.788,118.833 C250.731,114.530 251.705,109.738 251.705,104.458 C251.705,99.322 250.731,94.667 248.788,90.500 ZM165.665,114.875 L95.665,114.875 C96.498,118.488 98.093,121.542 100.456,124.042 C102.816,126.542 105.801,128.384 109.415,129.563 C113.025,130.744 117.051,131.333 121.498,131.333 L154.206,131.333 L154.206,158.000 L122.540,158.000 C110.456,158.000 99.831,155.744 90.665,151.229 C81.498,146.717 74.379,140.467 69.310,132.479 C64.239,124.494 61.706,115.223 61.706,104.667 C61.706,93.000 64.135,83.000 68.998,74.667 C73.858,66.333 80.352,59.911 88.477,55.396 C96.602,50.884 105.593,48.625 115.456,48.625 C126.706,48.625 136.114,50.988 143.685,55.708 C151.254,60.432 156.983,66.854 160.873,74.979 C164.760,83.104 166.706,92.375 166.706,102.792 C166.706,104.598 166.602,106.717 166.394,109.146 C166.185,111.577 165.941,113.488 165.665,114.875 ZM134.206,88.208 C133.650,86.125 132.781,84.286 131.602,82.688 C130.420,81.092 129.066,79.702 127.540,78.521 C126.010,77.342 124.239,76.405 122.227,75.708 C120.212,75.015 117.956,74.667 115.456,74.667 C112.260,74.667 109.415,75.223 106.915,76.333 C104.415,77.447 102.331,78.937 100.665,80.812 C98.998,82.688 97.712,84.842 96.810,87.271 C95.906,89.702 95.248,92.167 94.831,94.667 L135.456,94.667 C135.176,92.447 134.760,90.292 134.206,88.208 ZM34.625,79.562 C33.235,80.884 32.542,82.583 32.542,84.667 L32.542,158.000 L0.250,158.000 L0.250,82.583 C0.250,72.863 3.027,65.223 8.583,59.667 C14.137,54.113 21.845,51.333 31.708,51.333 L62.750,51.333 L62.750,77.583 L39.625,77.583 C37.678,77.583 36.012,78.244 34.625,79.562 ZM485.657,158.000 L453.157,158.000 L453.157,51.125 L485.657,51.125 L485.657,158.000 Z"/>
</svg>